<?xml version="1.0" standalone="no"?><!DOCTYPE svg PUBLIC "-//W3C//DTD SVG 1.1//EN" "http://www.w3.org/Graphics/SVG/1.1/DTD/svg11.dtd"><svg t="1654504367751" class="icon" viewBox="0 0 1024 1024" version="1.1" xmlns="http://www.w3.org/2000/svg" p-id="2723" xmlns:xlink="http://www.w3.org/1999/xlink" width="200" height="200"><defs><style type="text/css">@font-face { font-family: "feedback-iconfont"; src: url("//at.alicdn.com/t/font_1031158_u69w8yhxdu.woff2?t=1630033759944") format("woff2"), url("//at.alicdn.com/t/font_1031158_u69w8yhxdu.woff?t=1630033759944") format("woff"), url("//at.alicdn.com/t/font_1031158_u69w8yhxdu.ttf?t=1630033759944") format("truetype"); }
</style></defs><path fill="#6495ED" d="M874.666667 394.666667H149.333333v373.333333a53.333333 53.333333 0 0 0 53.333334 53.333333h618.666666a53.333333 53.333333 0 0 0 53.333334-53.333333V394.666667z m-725.333334-64h725.333334v-74.666667a53.333333 53.333333 0 0 0-53.333334-53.333333H202.666667a53.333333 53.333333 0 0 0-53.333334 53.333333v74.666667z m608 341.333333a32 32 0 0 1 0 64H650.666667a32 32 0 0 1 0-64h106.666666zM202.666667 138.666667h618.666666c64.8 0 117.333333 52.533333 117.333334 117.333333v512c0 64.8-52.533333 117.333333-117.333334 117.333333H202.666667c-64.8 0-117.333333-52.533333-117.333334-117.333333V256c0-64.8 52.533333-117.333333 117.333334-117.333333z" p-id="2724"></path></svg>